<?xml version="1.0" standalone="no"?>
<!DOCTYPE svg PUBLIC "-//W3C//DTD SVG 20010904//EN"
 "http://www.w3.org/TR/2001/REC-SVG-20010904/DTD/svg10.dtd">
<svg version="1.0" xmlns="http://www.w3.org/2000/svg"
 width="1024.000000pt" height="1024.000000pt" viewBox="0 0 1024.000000 1024.000000"
 preserveAspectRatio="xMidYMid meet">
<metadata>
Created by potrace 1.14, written by Peter Selinger 2001-2017
</metadata>
<g transform="translate(0.000000,1024.000000) scale(0.100000,-0.100000)"
fill="#000000" stroke="none">
<path d="M4928 10015 c-1 -1 -55 -6 -118 -9 -63 -4 -128 -8 -145 -10 -16 -2
-59 -6 -95 -10 -36 -3 -74 -8 -85 -10 -20 -4 -88 -13 -155 -21 -29 -4 -84 -14
-155 -30 -9 -2 -73 -14 -105 -21 -8 -1 -43 -9 -78 -17 -34 -9 -66 -16 -70 -16
-18 -3 -89 -23 -112 -31 -14 -5 -36 -12 -50 -14 -43 -9 -121 -32 -230 -70 -58
-20 -112 -38 -121 -40 -9 -3 -38 -13 -65 -24 -27 -11 -85 -35 -129 -52 -318
-127 -757 -370 -970 -537 -16 -13 -34 -27 -40 -31 -36 -27 -101 -77 -105 -82
-3 -3 -21 -17 -40 -30 -19 -13 -37 -27 -40 -31 -3 -3 -45 -40 -95 -81 -126
-104 -417 -396 -480 -480 -5 -7 -26 -32 -45 -54 -40 -46 -48 -56 -110 -139
-25 -33 -48 -62 -51 -65 -19 -15 -227 -334 -267 -410 -14 -25 -30 -52 -37 -60
-25 -29 -183 -346 -245 -490 -34 -80 -68 -158 -75 -175 -45 -100 -157 -456
-199 -630 -32 -131 -38 -157 -42 -170 -2 -5 -6 -26 -9 -45 -3 -19 -12 -66 -20
-105 -12 -61 -37 -229 -49 -335 -5 -40 -15 -193 -21 -295 -2 -38 -6 -78 -10
-88 -4 -10 -4 -127 -1 -260 8 -243 8 -260 20 -352 3 -27 8 -84 11 -125 7 -99
16 -173 22 -183 2 -4 7 -24 9 -45 3 -20 14 -86 25 -147 11 -60 22 -125 25
-144 16 -99 174 -602 224 -716 10 -22 37 -85 60 -140 48 -115 151 -323 178
-363 10 -15 27 -45 37 -67 34 -74 254 -420 312 -490 4 -6 28 -37 53 -70 92
-123 278 -332 444 -498 157 -158 228 -224 360 -332 27 -22 54 -44 60 -50 68
-62 346 -255 521 -362 203 -123 449 -249 690 -351 202 -86 557 -194 777 -237
148 -29 341 -64 347 -63 3 0 8 0 11 -1 3 -2 21 -4 40 -7 19 -2 73 -8 120 -14
267 -33 541 -42 780 -25 58 4 125 9 150 10 25 2 61 6 80 9 19 2 58 8 85 11
101 13 121 16 190 26 334 52 799 185 1063 305 29 13 55 24 57 24 6 0 150 67
195 90 363 188 652 374 925 593 174 140 222 183 425 378 68 66 253 267 312
340 245 303 422 562 538 789 67 129 170 340 170 345 0 2 11 28 24 57 134 299
268 770 316 1113 6 44 13 91 15 105 2 14 7 63 11 110 3 47 8 99 10 115 21 174
27 715 10 810 -5 28 -10 66 -11 85 -2 44 -12 118 -31 235 -9 50 -17 102 -19
118 -2 15 -8 42 -13 60 -6 17 -13 52 -17 77 -3 25 -17 92 -32 150 -14 58 -26
110 -27 115 -14 64 -127 405 -135 405 -3 0 -8 12 -9 28 -1 15 -6 36 -11 47 -6
11 -33 79 -62 150 -58 146 -226 496 -286 595 -22 36 -50 85 -64 110 -13 25
-30 51 -37 58 -6 8 -17 23 -23 35 -6 12 -41 66 -78 120 -36 54 -70 105 -76
115 -12 19 -11 18 -71 97 -98 130 -217 277 -278 345 -104 113 -361 366 -451
442 -254 216 -550 417 -820 558 -261 137 -340 172 -605 272 -136 51 -343 118
-365 119 -2 0 -23 6 -45 14 -55 19 -229 61 -384 91 -79 15 -145 27 -166 29
-14 1 -43 5 -65 9 -44 7 -90 12 -180 21 -33 3 -96 9 -140 14 -75 8 -529 13
-537 6z"/>
</g>
</svg>
